<svg width="838" height="205" viewBox="0 0 838 205" fill="none" xmlns="http://www.w3.org/2000/svg">
<path d="M274.239 159.26C268.079 159.26 262.666 158.047 257.999 155.62C253.332 153.193 249.692 149.74 247.079 145.26C244.559 140.78 243.299 135.647 243.299 129.86V87.86C243.299 82.1667 244.559 77.1267 247.079 72.74C249.692 68.3533 253.332 64.9467 257.999 62.52C262.666 60.0933 268.079 58.88 274.239 58.88C280.306 58.88 285.672 60.0933 290.339 62.52C295.006 64.9467 298.599 68.3533 301.119 72.74C303.732 77.1267 305.039 82.1667 305.039 87.86V88C305.039 88.9333 304.572 89.4 303.639 89.4H302.239C301.306 89.4 300.839 88.98 300.839 88.14V87.72C300.839 80.2533 298.412 74.2333 293.559 69.66C288.706 65.0867 282.266 62.8 274.239 62.8C266.212 62.8 259.726 65.0867 254.779 69.66C249.926 74.2333 247.499 80.2533 247.499 87.72V130.28C247.499 137.747 249.926 143.813 254.779 148.48C259.726 153.053 266.212 155.34 274.239 155.34C282.172 155.34 288.566 153.053 293.419 148.48C298.366 143.813 300.839 137.747 300.839 130.28V130C300.839 129.067 301.306 128.6 302.239 128.6L303.639 128.74C304.572 128.74 305.039 129.16 305.039 130C305.039 135.787 303.732 140.92 301.119 145.4C298.599 149.787 295.006 153.193 290.339 155.62C285.672 158.047 280.306 159.26 274.239 159.26ZM359.421 158.98C353.261 158.98 347.801 157.72 343.041 155.2C338.375 152.587 334.735 148.993 332.121 144.42C329.508 139.753 328.201 134.387 328.201 128.32V89.82C328.201 83.7533 329.508 78.3867 332.121 73.72C334.735 68.96 338.375 65.32 343.041 62.8C347.801 60.1867 353.261 58.88 359.421 58.88C365.675 58.88 371.181 60.1867 375.941 62.8C380.701 65.32 384.388 68.96 387.001 73.72C389.615 78.3867 390.921 83.7533 390.921 89.82V128.32C390.921 134.387 389.615 139.753 387.001 144.42C384.388 148.993 380.701 152.587 375.941 155.2C371.181 157.72 365.675 158.98 359.421 158.98ZM359.421 155.2C367.635 155.2 374.215 152.773 379.161 147.92C384.201 142.973 386.721 136.487 386.721 128.46V89.68C386.721 81.6533 384.201 75.1667 379.161 70.22C374.215 65.2733 367.635 62.8 359.421 62.8C351.301 62.8 344.768 65.2733 339.821 70.22C334.875 75.1667 332.401 81.6533 332.401 89.68V128.46C332.401 136.487 334.875 142.973 339.821 147.92C344.768 152.773 351.301 155.2 359.421 155.2ZM478.571 61.4C478.571 60.4667 479.038 60 479.971 60H481.371C482.305 60 482.771 60.4667 482.771 61.4V156.6C482.771 157.533 482.305 158 481.371 158H479.831C479.178 158 478.618 157.673 478.151 157.02L423.831 68.96C423.738 68.68 423.598 68.5867 423.411 68.68C423.225 68.68 423.131 68.82 423.131 69.1V156.6C423.131 157.533 422.665 158 421.731 158H420.331C419.398 158 418.931 157.533 418.931 156.6V61.4C418.931 60.4667 419.398 60 420.331 60H422.011C422.665 60 423.225 60.3267 423.691 60.98L478.011 149.04C478.105 149.32 478.245 149.46 478.431 149.46C478.618 149.367 478.711 149.18 478.711 148.9L478.571 61.4ZM541.798 159.26C535.638 159.26 530.224 158.047 525.558 155.62C520.891 153.193 517.251 149.74 514.638 145.26C512.118 140.78 510.858 135.647 510.858 129.86V87.86C510.858 82.1667 512.118 77.1267 514.638 72.74C517.251 68.3533 520.891 64.9467 525.558 62.52C530.224 60.0933 535.638 58.88 541.798 58.88C547.864 58.88 553.231 60.0933 557.898 62.52C562.564 64.9467 566.158 68.3533 568.678 72.74C571.291 77.1267 572.598 82.1667 572.598 87.86V88C572.598 88.9333 572.131 89.4 571.198 89.4H569.798C568.864 89.4 568.398 88.98 568.398 88.14V87.72C568.398 80.2533 565.971 74.2333 561.118 69.66C556.264 65.0867 549.824 62.8 541.798 62.8C533.771 62.8 527.284 65.0867 522.338 69.66C517.484 74.2333 515.058 80.2533 515.058 87.72V130.28C515.058 137.747 517.484 143.813 522.338 148.48C527.284 153.053 533.771 155.34 541.798 155.34C549.731 155.34 556.124 153.053 560.978 148.48C565.924 143.813 568.398 137.747 568.398 130.28V130C568.398 129.067 568.864 128.6 569.798 128.6L571.198 128.74C572.131 128.74 572.598 129.16 572.598 130C572.598 135.787 571.291 140.92 568.678 145.4C566.158 149.787 562.564 153.193 557.898 155.62C553.231 158.047 547.864 159.26 541.798 159.26ZM600.8 158C599.867 158 599.4 157.533 599.4 156.6V61.4C599.4 60.4667 599.867 60 600.8 60H602.2C603.133 60 603.6 60.4667 603.6 61.4V156.6C603.6 157.533 603.133 158 602.2 158H600.8ZM660.56 159.12C650.48 159.12 642.547 156.927 636.76 152.54C630.974 148.06 628.08 142.087 628.08 134.62V129.72C628.08 128.787 628.547 128.32 629.48 128.32H630.6C631.534 128.32 632 128.787 632 129.72V134.34C632 140.687 634.567 145.773 639.7 149.6C644.834 153.333 651.88 155.2 660.84 155.2C669.334 155.2 675.82 153.427 680.3 149.88C684.874 146.333 687.16 141.433 687.16 135.18C687.16 131.353 686.227 128.04 684.36 125.24C682.494 122.44 679.507 119.78 675.4 117.26C671.387 114.74 665.694 111.893 658.32 108.72C650.947 105.547 645.44 102.933 641.8 100.88C638.254 98.8267 635.454 96.3067 633.4 93.32C631.347 90.3333 630.32 86.5067 630.32 81.84C630.32 74.3733 632.794 68.68 637.74 64.76C642.687 60.84 649.78 58.88 659.02 58.88C669.007 58.88 676.707 61.12 682.12 65.6C687.627 69.9867 690.38 75.96 690.38 83.52V86.88C690.38 87.8133 689.914 88.28 688.98 88.28H687.58C686.647 88.28 686.18 87.8133 686.18 86.88V83.8C686.18 77.4533 683.754 72.3667 678.9 68.54C674.14 64.7133 667.374 62.8 658.6 62.8C650.76 62.8 644.74 64.3867 640.54 67.56C636.434 70.7333 634.38 75.4 634.38 81.56C634.38 85.5733 635.314 88.8867 637.18 91.5C639.047 94.02 641.66 96.2133 645.02 98.08C648.38 99.8533 653.7 102.233 660.98 105.22C671.62 109.7 679.32 114.087 684.08 118.38C688.934 122.673 691.36 128.18 691.36 134.9C691.36 142.273 688.654 148.153 683.24 152.54C677.92 156.927 670.36 159.12 660.56 159.12ZM777.058 62.52C777.058 63.4533 776.591 63.92 775.658 63.92H720.918C720.545 63.92 720.358 64.1067 720.358 64.48V106.34C720.358 106.713 720.545 106.9 720.918 106.9H760.398C761.331 106.9 761.798 107.367 761.798 108.3V109.42C761.798 110.353 761.331 110.82 760.398 110.82H720.918C720.545 110.82 720.358 111.007 720.358 111.38V153.52C720.358 153.893 720.545 154.08 720.918 154.08H775.658C776.591 154.08 777.058 154.547 777.058 155.48V156.6C777.058 157.533 776.591 158 775.658 158H717.558C716.625 158 716.158 157.533 716.158 156.6V61.4C716.158 60.4667 716.625 60 717.558 60H775.658C776.591 60 777.058 60.4667 777.058 61.4V62.52Z" fill="black"/>
<path d="M152.157 31.5374L125.466 27L79.5587 40.879L53.4021 75.8434L51 107.605L53.4021 123.085L66.7473 147.374L81.9609 161.52L98.7758 172.73L125.466 177L170.306 163.655L196.996 128.69L199.665 96.1281L184.719 57.427L152.157 31.5374Z" stroke="black" stroke-width="2"/>
<path d="M80.3594 41.9466L76.8896 52.089L53.4021 76.1103V122.552L80.3594 160.185L125.466 176.466L151.623 157.249L169.505 163.922L184.452 130.826L196.196 128.423" stroke="black" stroke-width="2"/>
<path d="M184.986 131.626L199.132 96.9288L176.445 87.5872L184.986 58.4947L148.954 50.4876L152.157 31.2705H112.388L77.1566 52.089L80.0926 41.9466" stroke="black" stroke-width="2"/>
<path d="M80.0925 42.2135V40.879" stroke="black" stroke-width="3"/>
<path d="M77.4235 52.089L53.4021 75.8434V122.819" stroke="black" stroke-width="2"/>
<path d="M77.4235 52.8897L105.181 62.7651L111.854 32.605L148.42 49.9537L176.712 87.8541L183.918 131.093L152.157 157.249L114.256 151.377L125.466 175.665" stroke="black" stroke-width="2"/>
<path d="M113.989 152.178L82.2278 160.719L77.4235 130.826L54.4698 123.085L68.3488 89.9893L52.8683 76.911" stroke="black" stroke-width="2"/>
<path d="M77.1566 52.6228L68.0819 89.4555L77.1566 130.559L113.989 152.178L149.488 124.42L152.69 156.715" stroke="black" stroke-width="2"/>
<path d="M183.117 130.826L150.288 123.619L175.644 88.3879L139.345 84.6512L148.954 50.2206L104.915 62.2313L68.6157 88.3879L104.915 108.673L78.4911 130.826" stroke="black" stroke-width="2"/>
<path d="M104.648 107.605L106.249 62.7651L139.612 84.9182M114.256 150.843L104.648 107.605L114.256 150.843ZM104.648 107.605L150.021 123.619L139.612 84.9182L104.648 107.605ZM104.648 107.605L139.612 84.9182L104.648 107.605Z" stroke="black" stroke-width="2"/>
</svg>
