<svg width="282" height="285" viewBox="0 0 282 285" fill="none" xmlns="http://www.w3.org/2000/svg">
<path d="M191.5 10.5L141.5 2L55.5 28L6.5 93.5L2 153L6.5 182L31.5 227.5L60 254L91.5 275L141.5 283L225.5 258L275.5 192.5L280.5 131.5L252.5 59L191.5 10.5Z" stroke="black" stroke-width="2"/>
<path d="M57 30L50.5 49L6.5 94V181L57 251.5L141.5 282L190.5 246L224 258.5L252 196.5L274 192" stroke="black" stroke-width="2"/>
<path d="M253 198L279.5 133L237 115.5L253 61L185.5 46L191.5 10H117L51 49L56.5 30" stroke="black" stroke-width="2"/>
<path d="M56.5 30.5V28" stroke="black" stroke-width="3"/>
<path d="M51.5 49L6.5 93.5V181.5" stroke="black" stroke-width="2"/>
<path d="M51.5 50.5L103.5 69L116 12.5L184.5 45L237.5 116L251 197L191.5 246L120.5 235L141.5 280.5" stroke="black" stroke-width="2"/>
<path d="M120 236.5L60.5 252.5L51.5 196.5L8.5 182L34.5 120L5.5 95.5" stroke="black" stroke-width="2"/>
<path d="M51 50L34 119L51 196L120 236.5L186.5 184.5L192.5 245" stroke="black" stroke-width="2"/>
<path d="M249.5 196.5L188 183L235.5 117L167.5 110L185.5 45.5L103 68L35 117L103 155L53.5 196.5" stroke="black" stroke-width="2"/>
<path d="M120.5 234L102.5 153M102.5 153L187.5 183L168 110.5M102.5 153L168 110.5M102.5 153L105.5 69L168 110.5" stroke="black" stroke-width="2"/>
</svg>
